<svg width="61" height="52" viewBox="0 0 61 52" fill="none" xmlns="http://www.w3.org/2000/svg">
<path d="M5.27897 22.1577C4.39693 21.9171 3.87573 21.015 4.1096 20.133C4.34347 19.251 5.25224 18.7298 6.13427 18.9636C7.01631 19.1975 7.53751 20.1063 7.30364 20.9816V20.9883C7.10318 21.7233 6.43497 22.2111 5.70662 22.2111C5.5663 22.2111 5.41929 22.1911 5.27897 22.1577ZM6.97622 16.9256C6.18773 16.4645 5.92045 15.4555 6.37483 14.6671C6.83589 13.8786 7.84489 13.6046 8.63337 14.0657C9.42186 14.52 9.69583 15.529 9.23476 16.3175C8.92739 16.8521 8.37277 17.1461 7.8048 17.1461C7.52415 17.1461 7.23682 17.0726 6.97622 16.9256ZM9.97647 12.315C9.33499 11.6668 9.33499 10.6244 9.97647 9.97623C10.6246 9.33475 11.667 9.33475 12.3152 9.97623C12.9567 10.6244 12.9567 11.6668 12.3152 12.315C11.9945 12.6357 11.5668 12.7961 11.1458 12.7961C10.7249 12.7961 10.3039 12.6357 9.97647 12.315ZM14.0659 8.63313C13.6048 7.84464 13.8721 6.82897 14.6673 6.37458C15.4558 5.9202 16.4648 6.18749 16.9192 6.97597C17.3802 7.76446 17.1129 8.78014 16.3178 9.23452C16.0572 9.38821 15.7765 9.45503 15.4959 9.45503C14.9212 9.45503 14.3666 9.16101 14.0659 8.63313ZM18.9572 6.13403C18.7233 5.25199 19.2445 4.34323 20.1266 4.10936C21.0086 3.87548 21.9107 4.39669 22.1512 5.27872C22.3851 6.16076 21.8639 7.06284 20.9819 7.29671C20.8349 7.3368 20.6945 7.35685 20.5542 7.35685C19.8259 7.35685 19.1577 6.86906 18.9572 6.13403Z" fill="#B3B3B3"/>
<path d="M29.809 36.5978C25.6327 36.5978 24.4834 35.5554 24.4834 34.0653C24.4834 32.8291 25.2719 32.2544 26.5949 31.9136V31.7867C25.6594 31.506 25.0647 31.0182 25.0647 30.0627C25.0647 29.0002 25.8532 28.5525 27.0426 28.2719V28.1449C25.7463 27.5235 24.9779 26.3742 24.9779 24.7571C24.9779 22.2046 26.8756 20.8414 29.7489 20.8414C30.4505 20.8414 31.112 20.9283 31.6867 21.0753V20.4806C31.6867 19.6253 32.3282 18.9905 33.3706 18.9905H35.3084V21.2891H32.669V21.4829C33.8584 22.1043 34.5667 23.2069 34.5667 24.7638C34.5667 27.2963 32.6489 28.6795 29.7556 28.6795C29.1141 28.6795 28.4993 28.6127 27.9648 28.4657C27.644 28.6327 27.4102 28.8933 27.4102 29.2742C27.4102 29.9758 28.1585 30.0226 29.0272 30.0226H31.5397C34.6936 30.0226 35.9031 31.3457 35.9031 33.1966C35.8964 35.5086 33.9786 36.5978 29.809 36.5978ZM31.2791 32.5083H27.5104C27.2297 32.7422 27.0827 33.0429 27.0827 33.4037C27.0827 34.0853 27.6173 34.5731 29.0005 34.5731H30.8514C32.2814 34.5731 32.9162 34.1655 32.9162 33.4238C32.9162 32.8491 32.5554 32.5083 31.2791 32.5083ZM31.5731 25.011V24.5032C31.5731 23.541 30.9984 22.8394 29.7422 22.8394C28.506 22.8394 27.9514 23.541 27.9514 24.5032V25.011C27.9514 25.9733 28.506 26.6749 29.7422 26.6749C30.9984 26.6749 31.5731 25.9666 31.5731 25.011Z" fill="#B3B3B3"/>
<path d="M37.8945 29.6285H41.3893V23.5344H37.8945V21.0821H44.5365V29.6218H47.7707V32.0741H37.8945V29.6285ZM44.9775 17.5472C44.9775 18.73 44.022 19.6855 42.8393 19.6855C41.6565 19.6855 40.701 18.73 40.701 17.5472C40.701 16.3645 41.6565 15.409 42.8393 15.409C44.022 15.4023 44.9775 16.3645 44.9775 17.5472Z" fill="#B3B3B3"/>
<path d="M49.8217 29.6284H53.0559V23.5344H49.6079V21.082H53.0559V19.485C53.0559 17.6341 54.1183 16.311 56.4236 16.311H60.1522V18.7634H56.2098V21.082H60.1522V23.5344H56.2098V29.6284H59.6578V32.0808H49.8217V29.6284Z" fill="#B3B3B3"/>
<path d="M19.0509 32.3346C20.2318 32.3346 21.1891 31.3773 21.1891 30.1964C21.1891 29.0154 20.2318 28.0581 19.0509 28.0581C17.8699 28.0581 16.9126 29.0154 16.9126 30.1964C16.9126 31.3773 17.8699 32.3346 19.0509 32.3346Z" fill="#B3B3B3"/>
<path d="M40.6405 41.1617C40.0591 40.4601 39.0167 40.3599 38.3151 40.9412C35.2881 43.4403 31.5528 44.9505 27.6572 45.2913V43.6742C27.6572 42.7588 26.9154 42.0237 26.0067 42.0237C25.0979 42.0237 24.3562 42.7654 24.3562 43.6742V45.2913C15.0013 44.4961 7.52403 37.0188 6.72886 27.6639H8.33924C9.25469 27.6639 9.98972 26.9222 9.98972 26.0134C9.98972 25.1047 9.24801 24.363 8.33924 24.363H1.65716C0.741712 24.3496 0 25.0846 0 26.0001C0 26.9155 0.741712 27.6506 1.65048 27.6506H3.40786C4.2164 38.8297 13.1704 47.7837 24.3495 48.5922V50.3496C24.3495 51.2651 25.0912 52.0001 26 52.0001C26.9088 52.0001 27.6505 51.2584 27.6505 50.3496V48.5989C32.3146 48.2581 36.7916 46.474 40.4133 43.4871C41.1216 42.9058 41.2218 41.8634 40.6405 41.1617Z" fill="#B3B3B3"/>
<path d="M26.0001 9.98304C26.9155 9.98304 27.6506 9.24133 27.6506 8.33256V6.7155C31.5462 7.0496 35.2748 8.55975 38.3018 11.0589C38.6092 11.3128 38.9834 11.4397 39.3509 11.4397C39.8253 11.4397 40.2998 11.2326 40.6272 10.8383C41.2085 10.1367 41.1083 9.09432 40.4067 8.51298C36.7917 5.52609 32.3147 3.74865 27.6506 3.40786V1.65048C27.6506 0.73503 26.9088 0 26.0001 0C25.0913 0 24.3496 0.741712 24.3496 1.65048V8.33256C24.3496 9.24133 25.0913 9.98304 26.0001 9.98304Z" fill="#B3B3B3"/>
</svg>
